<?xml version="1.0" encoding="UTF-8" standalone="no"?>
<!DOCTYPE svg PUBLIC "-//W3C//DTD SVG 1.1//EN"
 "http://www.w3.org/Graphics/SVG/1.1/DTD/svg11.dtd">
<!-- Generated by graphviz version 2.40.1 (20161225.0304)
 -->
<!-- Title: system_diagram Pages: 1 -->
<svg width="2234pt" height="218pt"
 viewBox="0.00 0.00 2233.52 217.50" xmlns="http://www.w3.org/2000/svg" xmlns:xlink="http://www.w3.org/1999/xlink">
<g id="graph0" class="graph" transform="scale(1 1) rotate(0) translate(4 213.5)">
<title>system_diagram</title>
<polygon fill="#ffffff" stroke="transparent" points="-4,4 -4,-213.5 2229.5196,-213.5 2229.5196,4 -4,4"/>
<!-- odom -->
<g id="node1" class="node">
<title>odom</title>
<path fill="none" stroke="#000000" d="M165.9648,-160.7C165.9648,-160.7 195.9648,-160.7 195.9648,-160.7 201.9648,-160.7 207.9648,-166.7 207.9648,-172.7 207.9648,-172.7 207.9648,-184.7 207.9648,-184.7 207.9648,-190.7 201.9648,-196.7 195.9648,-196.7 195.9648,-196.7 165.9648,-196.7 165.9648,-196.7 159.9648,-196.7 153.9648,-190.7 153.9648,-184.7 153.9648,-184.7 153.9648,-172.7 153.9648,-172.7 153.9648,-166.7 159.9648,-160.7 165.9648,-160.7"/>
<text text-anchor="middle" x="180.9648" y="-174.3" font-family="Times,serif" font-size="16.00" fill="#000000">odom</text>
</g>
<!-- integrate -->
<g id="node2" class="node">
<title>integrate</title>
<path fill="none" stroke="#000000" d="M349.938,-160.7C349.938,-160.7 397.9108,-160.7 397.9108,-160.7 403.9108,-160.7 409.9108,-166.7 409.9108,-172.7 409.9108,-172.7 409.9108,-184.7 409.9108,-184.7 409.9108,-190.7 403.9108,-196.7 397.9108,-196.7 397.9108,-196.7 349.938,-196.7 349.938,-196.7 343.938,-196.7 337.938,-190.7 337.938,-184.7 337.938,-184.7 337.938,-172.7 337.938,-172.7 337.938,-166.7 343.938,-160.7 349.938,-160.7"/>
<text text-anchor="middle" x="373.9244" y="-174.3" font-family="Times,serif" font-size="16.00" fill="#000000">integrate</text>
</g>
<!-- odom&#45;&gt;integrate -->
<g id="edge1" class="edge">
<title>odom&#45;&gt;integrate</title>
<path fill="none" stroke="#000000" d="M208.2019,-178.7C239.1582,-178.7 290.2157,-178.7 327.4908,-178.7"/>
<polygon fill="#000000" stroke="#000000" points="327.6107,-182.2001 337.6107,-178.7 327.6107,-175.2001 327.6107,-182.2001"/>
<text text-anchor="middle" x="289.4374" y="-182.9" font-family="Times,serif" font-size="14.00" fill="#000000">test</text>
</g>
<!-- odom diff -->
<g id="node3" class="node">
<title>odom diff</title>
<path fill="none" stroke="#000000" d="M460.2508,-109.5C460.2508,-109.5 621.0764,-109.5 621.0764,-109.5 627.0764,-109.5 633.0764,-115.5 633.0764,-121.5 633.0764,-121.5 633.0764,-151.9 633.0764,-151.9 633.0764,-157.9 627.0764,-163.9 621.0764,-163.9 621.0764,-163.9 460.2508,-163.9 460.2508,-163.9 454.2508,-163.9 448.2508,-157.9 448.2508,-151.9 448.2508,-151.9 448.2508,-121.5 448.2508,-121.5 448.2508,-115.5 454.2508,-109.5 460.2508,-109.5"/>
<text text-anchor="middle" x="540.6636" y="-145.5" font-family="Times,serif" font-size="16.00" fill="#000000">odom difference threshold</text>
<polyline fill="none" stroke="#000000" points="448.2508,-136.7 633.0764,-136.7 "/>
<text text-anchor="middle" x="540.6636" y="-118.3" font-family="Times,serif" font-size="16.00" fill="#000000">d = 0.2 m OR θ = 15 deg</text>
</g>
<!-- integrate&#45;&gt;odom diff -->
<g id="edge2" class="edge">
<title>integrate&#45;&gt;odom diff</title>
<path fill="none" stroke="#ffa500" d="M410.1043,-169.5866C418.7417,-167.4109 428.3868,-164.9815 438.4165,-162.4551"/>
<polygon fill="#ffa500" stroke="#ffa500" points="439.2881,-165.8449 448.1302,-160.0083 437.5782,-159.057 439.2881,-165.8449"/>
</g>
<!-- goal pose -->
<g id="node13" class="node">
<title>goal pose</title>
<path fill="none" stroke="#000000" d="M1627.1356,-68.9C1627.1356,-68.9 2051.3948,-68.9 2051.3948,-68.9 2057.3948,-68.9 2063.3948,-74.9 2063.3948,-80.9 2063.3948,-80.9 2063.3948,-130.5 2063.3948,-130.5 2063.3948,-136.5 2057.3948,-142.5 2051.3948,-142.5 2051.3948,-142.5 1627.1356,-142.5 1627.1356,-142.5 1621.1356,-142.5 1615.1356,-136.5 1615.1356,-130.5 1615.1356,-130.5 1615.1356,-80.9 1615.1356,-80.9 1615.1356,-74.9 1621.1356,-68.9 1627.1356,-68.9"/>
<text text-anchor="middle" x="1839.2652" y="-124.1" font-family="Times,serif" font-size="16.00" fill="#000000">calc goal pose</text>
<polyline fill="none" stroke="#000000" points="1615.1356,-115.3 2063.3948,-115.3 "/>
<text text-anchor="middle" x="1839.2652" y="-96.9" font-family="Times,serif" font-size="16.00" fill="#000000">goal = (next image pose &#45; curr image pose) + last goal + pose offset</text>
<text text-anchor="middle" x="1839.2652" y="-77.7" font-family="Times,serif" font-size="16.00" fill="#000000">lookahead distance: 0.1 m</text>
</g>
<!-- integrate&#45;&gt;goal pose -->
<g id="edge16" class="edge">
<title>integrate&#45;&gt;goal pose</title>
<path fill="none" stroke="#0000ff" d="M409.9547,-183.4788C443.6761,-187.5345 495.4914,-192.7 540.6636,-192.7 540.6636,-192.7 540.6636,-192.7 1422.5198,-192.7 1522.7657,-192.7 1633.7676,-168.2798 1715.9899,-145.3152"/>
<polygon fill="#0000ff" stroke="#0000ff" points="1716.9464,-148.682 1725.6186,-142.5958 1715.0438,-141.9455 1716.9464,-148.682"/>
<text text-anchor="middle" x="909.8362" y="-196.9" font-family="Times,serif" font-size="14.00" fill="#000000">odom</text>
</g>
<!-- database -->
<g id="node4" class="node">
<title>database</title>
<path fill="none" stroke="#000000" d="M715.2868,-101.7C715.2868,-101.7 762.3652,-101.7 762.3652,-101.7 768.3652,-101.7 774.3652,-107.7 774.3652,-113.7 774.3652,-113.7 774.3652,-125.7 774.3652,-125.7 774.3652,-131.7 768.3652,-137.7 762.3652,-137.7 762.3652,-137.7 715.2868,-137.7 715.2868,-137.7 709.2868,-137.7 703.2868,-131.7 703.2868,-125.7 703.2868,-125.7 703.2868,-113.7 703.2868,-113.7 703.2868,-107.7 709.2868,-101.7 715.2868,-101.7"/>
<text text-anchor="middle" x="738.826" y="-115.3" font-family="Times,serif" font-size="16.00" fill="#000000">database</text>
</g>
<!-- odom diff&#45;&gt;database -->
<g id="edge3" class="edge">
<title>odom diff&#45;&gt;database</title>
<path fill="none" stroke="#ffa500" d="M633.3626,-128.7475C654.0769,-126.9705 675.1646,-125.1614 692.9844,-123.6327"/>
<polygon fill="#ffa500" stroke="#ffa500" points="693.407,-127.1094 703.0712,-122.7673 692.8086,-120.135 693.407,-127.1094"/>
<text text-anchor="middle" x="668.1816" y="-130.9" font-family="Times,serif" font-size="14.00" fill="#000000">pose</text>
</g>
<!-- query -->
<g id="node10" class="node">
<title>query</title>
<path fill="none" stroke="#000000" d="M853.861,-92.5C853.861,-92.5 965.8114,-92.5 965.8114,-92.5 971.8114,-92.5 977.8114,-98.5 977.8114,-104.5 977.8114,-104.5 977.8114,-134.9 977.8114,-134.9 977.8114,-140.9 971.8114,-146.9 965.8114,-146.9 965.8114,-146.9 853.861,-146.9 853.861,-146.9 847.861,-146.9 841.861,-140.9 841.861,-134.9 841.861,-134.9 841.861,-104.5 841.861,-104.5 841.861,-98.5 847.861,-92.5 853.861,-92.5"/>
<text text-anchor="middle" x="909.8362" y="-128.5" font-family="Times,serif" font-size="16.00" fill="#000000">query</text>
<polyline fill="none" stroke="#000000" points="841.861,-119.7 977.8114,-119.7 "/>
<text text-anchor="middle" x="909.8362" y="-101.3" font-family="Times,serif" font-size="16.00" fill="#000000">current goal image</text>
</g>
<!-- database&#45;&gt;query -->
<g id="edge9" class="edge">
<title>database&#45;&gt;query</title>
<path fill="none" stroke="#0000ff" d="M774.6753,-119.7C791.2648,-119.7 811.6706,-119.7 831.552,-119.7"/>
<polygon fill="#0000ff" stroke="#0000ff" points="831.5631,-123.2001 841.5631,-119.7 831.563,-116.2001 831.5631,-123.2001"/>
</g>
<!-- imgL -->
<g id="node5" class="node">
<title>imgL</title>
<path fill="none" stroke="#000000" d="M12,-73.5C12,-73.5 70.6528,-73.5 70.6528,-73.5 76.6528,-73.5 82.6528,-79.5 82.6528,-85.5 82.6528,-85.5 82.6528,-115.9 82.6528,-115.9 82.6528,-121.9 76.6528,-127.9 70.6528,-127.9 70.6528,-127.9 12,-127.9 12,-127.9 6,-127.9 0,-121.9 0,-115.9 0,-115.9 0,-85.5 0,-85.5 0,-79.5 6,-73.5 12,-73.5"/>
<text text-anchor="middle" x="41.3264" y="-109.5" font-family="Times,serif" font-size="16.00" fill="#000000">imgL</text>
<polyline fill="none" stroke="#000000" points="0,-100.7 82.6528,-100.7 "/>
<text text-anchor="middle" x="41.3264" y="-82.3" font-family="Times,serif" font-size="16.00" fill="#000000">(640x360)</text>
</g>
<!-- img blend -->
<g id="node7" class="node">
<title>img blend</title>
<path fill="none" stroke="#000000" d="M131.6528,-36.5C131.6528,-36.5 230.2768,-36.5 230.2768,-36.5 236.2768,-36.5 242.2768,-42.5 242.2768,-48.5 242.2768,-48.5 242.2768,-78.9 242.2768,-78.9 242.2768,-84.9 236.2768,-90.9 230.2768,-90.9 230.2768,-90.9 131.6528,-90.9 131.6528,-90.9 125.6528,-90.9 119.6528,-84.9 119.6528,-78.9 119.6528,-78.9 119.6528,-48.5 119.6528,-48.5 119.6528,-42.5 125.6528,-36.5 131.6528,-36.5"/>
<text text-anchor="middle" x="180.9648" y="-72.5" font-family="Times,serif" font-size="16.00" fill="#000000">image blend</text>
<polyline fill="none" stroke="#000000" points="119.6528,-63.7 242.2768,-63.7 "/>
<text text-anchor="middle" x="180.9648" y="-45.3" font-family="Times,serif" font-size="16.00" fill="#000000">linear alpha map</text>
</g>
<!-- imgL&#45;&gt;img blend -->
<g id="edge4" class="edge">
<title>imgL&#45;&gt;img blend</title>
<path fill="none" stroke="#000000" d="M82.8445,-89.699C91.2871,-87.4619 100.3942,-85.0488 109.5382,-82.6259"/>
<polygon fill="#000000" stroke="#000000" points="110.6751,-85.9455 119.4451,-80.0009 108.8822,-79.179 110.6751,-85.9455"/>
</g>
<!-- imgR -->
<g id="node6" class="node">
<title>imgR</title>
<path fill="none" stroke="#000000" d="M12,-.5C12,-.5 70.6528,-.5 70.6528,-.5 76.6528,-.5 82.6528,-6.5 82.6528,-12.5 82.6528,-12.5 82.6528,-42.9 82.6528,-42.9 82.6528,-48.9 76.6528,-54.9 70.6528,-54.9 70.6528,-54.9 12,-54.9 12,-54.9 6,-54.9 0,-48.9 0,-42.9 0,-42.9 0,-12.5 0,-12.5 0,-6.5 6,-.5 12,-.5"/>
<text text-anchor="middle" x="41.3264" y="-36.5" font-family="Times,serif" font-size="16.00" fill="#000000">imgR</text>
<polyline fill="none" stroke="#000000" points="0,-27.7 82.6528,-27.7 "/>
<text text-anchor="middle" x="41.3264" y="-9.3" font-family="Times,serif" font-size="16.00" fill="#000000">(640x360)</text>
</g>
<!-- imgR&#45;&gt;img blend -->
<g id="edge5" class="edge">
<title>imgR&#45;&gt;img blend</title>
<path fill="none" stroke="#000000" d="M82.8445,-38.4037C91.2871,-40.5803 100.3942,-42.9282 109.5382,-45.2856"/>
<polygon fill="#000000" stroke="#000000" points="108.8879,-48.7323 119.4451,-47.8397 110.6355,-41.954 108.8879,-48.7323"/>
</g>
<!-- resize -->
<g id="node8" class="node">
<title>resize</title>
<path fill="none" stroke="#000000" d="M348.598,-36.5C348.598,-36.5 399.2508,-36.5 399.2508,-36.5 405.2508,-36.5 411.2508,-42.5 411.2508,-48.5 411.2508,-48.5 411.2508,-78.9 411.2508,-78.9 411.2508,-84.9 405.2508,-90.9 399.2508,-90.9 399.2508,-90.9 348.598,-90.9 348.598,-90.9 342.598,-90.9 336.598,-84.9 336.598,-78.9 336.598,-78.9 336.598,-48.5 336.598,-48.5 336.598,-42.5 342.598,-36.5 348.598,-36.5"/>
<text text-anchor="middle" x="373.9244" y="-72.5" font-family="Times,serif" font-size="16.00" fill="#000000">resize</text>
<polyline fill="none" stroke="#000000" points="336.598,-63.7 411.2508,-63.7 "/>
<text text-anchor="middle" x="373.9244" y="-45.3" font-family="Times,serif" font-size="16.00" fill="#000000">(115x44)</text>
</g>
<!-- img blend&#45;&gt;resize -->
<g id="edge6" class="edge">
<title>img blend&#45;&gt;resize</title>
<path fill="none" stroke="#000000" d="M242.2836,-63.7C269.441,-63.7 300.9044,-63.7 326.2603,-63.7"/>
<polygon fill="#000000" stroke="#000000" points="326.3658,-67.2001 336.3657,-63.7 326.3657,-60.2001 326.3658,-67.2001"/>
<text text-anchor="middle" x="289.4374" y="-67.9" font-family="Times,serif" font-size="14.00" fill="#000000">(925x360)</text>
</g>
<!-- patch norm -->
<g id="node9" class="node">
<title>patch norm</title>
<path fill="none" stroke="#000000" d="M493.7916,-36.5C493.7916,-36.5 587.5356,-36.5 587.5356,-36.5 593.5356,-36.5 599.5356,-42.5 599.5356,-48.5 599.5356,-48.5 599.5356,-78.9 599.5356,-78.9 599.5356,-84.9 593.5356,-90.9 587.5356,-90.9 587.5356,-90.9 493.7916,-90.9 493.7916,-90.9 487.7916,-90.9 481.7916,-84.9 481.7916,-78.9 481.7916,-78.9 481.7916,-48.5 481.7916,-48.5 481.7916,-42.5 487.7916,-36.5 493.7916,-36.5"/>
<text text-anchor="middle" x="540.6636" y="-72.5" font-family="Times,serif" font-size="16.00" fill="#000000">patch normalise</text>
<polyline fill="none" stroke="#000000" points="481.7916,-63.7 599.5356,-63.7 "/>
<text text-anchor="middle" x="540.6636" y="-45.3" font-family="Times,serif" font-size="16.00" fill="#000000">(9x9)</text>
</g>
<!-- resize&#45;&gt;patch norm -->
<g id="edge7" class="edge">
<title>resize&#45;&gt;patch norm</title>
<path fill="none" stroke="#000000" d="M411.3439,-63.7C429.1669,-63.7 451.0645,-63.7 471.7395,-63.7"/>
<polygon fill="#000000" stroke="#000000" points="471.7677,-67.2001 481.7676,-63.7 471.7676,-60.2001 471.7677,-67.2001"/>
</g>
<!-- patch norm&#45;&gt;database -->
<g id="edge8" class="edge">
<title>patch norm&#45;&gt;database</title>
<path fill="none" stroke="#ffa500" d="M599.8295,-79.9181C626.0394,-87.1613 657.2284,-95.8608 685.2868,-103.9 687.9041,-104.6499 690.5918,-105.4255 693.3028,-106.2121"/>
<polygon fill="#ffa500" stroke="#ffa500" points="692.558,-109.6407 703.1381,-109.0826 694.5192,-102.9211 692.558,-109.6407"/>
<text text-anchor="middle" x="668.1816" y="-107.9" font-family="Times,serif" font-size="14.00" fill="#000000">image</text>
</g>
<!-- matcher -->
<g id="node11" class="node">
<title>matcher</title>
<path fill="none" stroke="#000000" d="M1044.8472,-28.3C1044.8472,-28.3 1209.3528,-28.3 1209.3528,-28.3 1215.3528,-28.3 1221.3528,-34.3 1221.3528,-40.3 1221.3528,-40.3 1221.3528,-109.1 1221.3528,-109.1 1221.3528,-115.1 1215.3528,-121.1 1209.3528,-121.1 1209.3528,-121.1 1044.8472,-121.1 1044.8472,-121.1 1038.8472,-121.1 1032.8472,-115.1 1032.8472,-109.1 1032.8472,-109.1 1032.8472,-40.3 1032.8472,-40.3 1032.8472,-34.3 1038.8472,-28.3 1044.8472,-28.3"/>
<text text-anchor="middle" x="1127.1" y="-102.7" font-family="Times,serif" font-size="16.00" fill="#000000">image matching</text>
<polyline fill="none" stroke="#000000" points="1032.8472,-93.9 1221.3528,-93.9 "/>
<text text-anchor="middle" x="1127.1" y="-75.5" font-family="Times,serif" font-size="16.00" fill="#000000">normxcorr2</text>
<text text-anchor="middle" x="1127.1" y="-56.3" font-family="Times,serif" font-size="16.00" fill="#000000">pad = temp.width/2 = 57</text>
<text text-anchor="middle" x="1127.1" y="-37.1" font-family="Times,serif" font-size="16.00" fill="#000000">range:(&#45;pad to +pad) horiz.</text>
</g>
<!-- patch norm&#45;&gt;matcher -->
<g id="edge11" class="edge">
<title>patch norm&#45;&gt;matcher</title>
<path fill="none" stroke="#0000ff" d="M599.5784,-64.8051C698.4574,-66.6598 899.0611,-70.4226 1022.4018,-72.7361"/>
<polygon fill="#0000ff" stroke="#0000ff" points="1022.5529,-76.2395 1032.6168,-72.9277 1022.6842,-69.2407 1022.5529,-76.2395"/>
<text text-anchor="middle" x="808.1131" y="-72.9" font-family="Times,serif" font-size="14.00" fill="#000000">temp.</text>
</g>
<!-- query&#45;&gt;matcher -->
<g id="edge10" class="edge">
<title>query&#45;&gt;matcher</title>
<path fill="none" stroke="#0000ff" d="M977.9837,-105.5852C992.1735,-102.6462 1007.4387,-99.4844 1022.5965,-96.3449"/>
<polygon fill="#0000ff" stroke="#0000ff" points="1023.4472,-99.7431 1032.5295,-94.2876 1022.0274,-92.8886 1023.4472,-99.7431"/>
<text text-anchor="middle" x="1005.3293" y="-104.9" font-family="Times,serif" font-size="14.00" fill="#000000">ref.</text>
</g>
<!-- pose offset -->
<g id="node12" class="node">
<title>pose offset</title>
<path fill="none" stroke="#000000" d="M1338.9342,-109.5C1338.9342,-109.5 1506.1054,-109.5 1506.1054,-109.5 1512.1054,-109.5 1518.1054,-115.5 1518.1054,-121.5 1518.1054,-121.5 1518.1054,-151.9 1518.1054,-151.9 1518.1054,-157.9 1512.1054,-163.9 1506.1054,-163.9 1506.1054,-163.9 1338.9342,-163.9 1338.9342,-163.9 1332.9342,-163.9 1326.9342,-157.9 1326.9342,-151.9 1326.9342,-151.9 1326.9342,-121.5 1326.9342,-121.5 1326.9342,-115.5 1332.9342,-109.5 1338.9342,-109.5"/>
<text text-anchor="middle" x="1422.5198" y="-145.5" font-family="Times,serif" font-size="16.00" fill="#000000">calc pose offset</text>
<polyline fill="none" stroke="#000000" points="1326.9342,-136.7 1518.1054,-136.7 "/>
<text text-anchor="middle" x="1422.5198" y="-118.3" font-family="Times,serif" font-size="16.00" fill="#000000">θ offset = K * image offset</text>
</g>
<!-- matcher&#45;&gt;pose offset -->
<g id="edge12" class="edge">
<title>matcher&#45;&gt;pose offset</title>
<path fill="none" stroke="#0000ff" d="M1221.3849,-94.4877C1251.7828,-100.8673 1285.6694,-107.9791 1316.8338,-114.5196"/>
<polygon fill="#0000ff" stroke="#0000ff" points="1316.3428,-117.9927 1326.8485,-116.6214 1317.7807,-111.142 1316.3428,-117.9927"/>
<text text-anchor="middle" x="1274.1435" y="-114.9" font-family="Times,serif" font-size="14.00" fill="#000000">image offset</text>
</g>
<!-- matcher&#45;&gt;goal pose -->
<g id="edge14" class="edge">
<title>matcher&#45;&gt;goal pose</title>
<path fill="none" stroke="#0000ff" d="M1221.5585,-75.3617C1300.7786,-76.2332 1416.8748,-78.2481 1518.1054,-82.9 1546.0769,-84.1854 1575.3988,-85.8407 1604.4716,-87.6721"/>
<polygon fill="#0000ff" stroke="#0000ff" points="1604.5395,-91.1834 1614.742,-88.3268 1604.985,-84.1976 1604.5395,-91.1834"/>
<text text-anchor="middle" x="1422.5198" y="-86.9" font-family="Times,serif" font-size="14.00" fill="#000000">match image pose</text>
</g>
<!-- matcher&#45;&gt;goal pose -->
<g id="edge15" class="edge">
<title>matcher&#45;&gt;goal pose</title>
<path fill="none" stroke="#0000ff" d="M1221.5094,-63.9851C1254.7811,-60.6954 1292.474,-57.5174 1326.9342,-55.9 1411.8057,-51.9165 1433.3916,-49.371 1518.1054,-55.9 1551.8988,-58.5045 1587.5162,-62.6287 1622.2409,-67.416"/>
<polygon fill="#0000ff" stroke="#0000ff" points="1622.1066,-70.9313 1632.4955,-68.8523 1623.0776,-63.999 1622.1066,-70.9313"/>
<text text-anchor="middle" x="1422.5198" y="-59.9" font-family="Times,serif" font-size="14.00" fill="#000000">next image pose</text>
</g>
<!-- pose offset&#45;&gt;goal pose -->
<g id="edge13" class="edge">
<title>pose offset&#45;&gt;goal pose</title>
<path fill="none" stroke="#0000ff" d="M1518.1296,-129.588C1544.3616,-127.6367 1574.0056,-125.4316 1604.4142,-123.1696"/>
<polygon fill="#0000ff" stroke="#0000ff" points="1605.0394,-126.6329 1614.7522,-122.4006 1604.5201,-119.6522 1605.0394,-126.6329"/>
<text text-anchor="middle" x="1566.6205" y="-130.9" font-family="Times,serif" font-size="14.00" fill="#000000">pose offset</text>
</g>
<!-- goto goal -->
<g id="node14" class="node">
<title>goto goal</title>
<path fill="none" stroke="#000000" d="M2112.3948,-68.9C2112.3948,-68.9 2213.5196,-68.9 2213.5196,-68.9 2219.5196,-68.9 2225.5196,-74.9 2225.5196,-80.9 2225.5196,-80.9 2225.5196,-130.5 2225.5196,-130.5 2225.5196,-136.5 2219.5196,-142.5 2213.5196,-142.5 2213.5196,-142.5 2112.3948,-142.5 2112.3948,-142.5 2106.3948,-142.5 2100.3948,-136.5 2100.3948,-130.5 2100.3948,-130.5 2100.3948,-80.9 2100.3948,-80.9 2100.3948,-74.9 2106.3948,-68.9 2112.3948,-68.9"/>
<text text-anchor="middle" x="2162.9572" y="-124.1" font-family="Times,serif" font-size="16.00" fill="#000000">navigate to goal</text>
<polyline fill="none" stroke="#000000" points="2100.3948,-115.3 2225.5196,-115.3 "/>
<text text-anchor="middle" x="2162.9572" y="-96.9" font-family="Times,serif" font-size="16.00" fill="#000000">v = K * ρ</text>
<text text-anchor="middle" x="2162.9572" y="-77.7" font-family="Times,serif" font-size="16.00" fill="#000000">ω = K*α + K*β</text>
</g>
<!-- goal pose&#45;&gt;goto goal -->
<g id="edge17" class="edge">
<title>goal pose&#45;&gt;goto goal</title>
<path fill="none" stroke="#0000ff" d="M2063.6391,-105.7C2072.8774,-105.7 2081.7945,-105.7 2090.241,-105.7"/>
<polygon fill="#0000ff" stroke="#0000ff" points="2090.3004,-109.2001 2100.3003,-105.7 2090.3003,-102.2001 2090.3004,-109.2001"/>
</g>
</g>
</svg>
